<svg id="svg" xmlns="http://www.w3.org/2000/svg" xmlns:xlink="http://www.w3.org/1999/xlink" width="400" height="250" viewBox="0, 0, 400,250" version="1.1"><g id="svgg"><path id="path0" d="M355.918 33.771 C 341.366 48.472,325.995 64.100,321.760 68.500 L 314.060 76.500 326.746 77.000 L 339.433 77.500 310.466 100.075 C 294.535 112.492,268.147 133.079,251.828 145.825 C 235.508 158.571,221.785 169.000,221.333 169.000 C 220.881 169.000,235.806 153.700,254.500 135.000 C 273.194 116.300,287.962 101.000,287.318 101.000 C 286.674 101.000,275.015 104.826,261.408 109.501 C 247.802 114.177,236.427 117.760,236.130 117.464 C 235.834 117.167,246.592 105.916,260.038 92.462 C 273.484 79.008,284.174 68.000,283.794 68.000 C 283.151 68.000,162.357 142.544,160.781 143.913 C 160.386 144.256,166.398 156.454,174.142 171.019 C 181.886 185.583,188.474 198.175,188.784 199.000 C 189.419 200.694,152.398 164.663,135.261 146.909 L 124.023 135.266 143.138 112.753 L 162.253 90.239 232.876 63.130 C 357.969 15.112,381.492 6.195,381.938 6.622 C 382.178 6.853,370.469 19.070,355.918 33.771 M102.348 149.725 C 109.965 155.065,115.748 159.584,115.201 159.766 C 114.653 159.949,107.285 158.761,98.828 157.126 C 68.472 151.259,49.000 149.802,49.000 153.399 C 49.000 154.304,46.670 154.903,41.422 155.347 C 31.460 156.189,28.212 157.925,36.500 157.977 C 41.924 158.011,51.936 159.212,57.723 160.522 C 59.408 160.903,59.806 160.658,59.366 159.512 C 57.260 154.024,97.553 164.550,136.365 179.627 L 150.230 185.013 189.782 213.698 C 211.536 229.475,230.496 243.432,231.917 244.714 L 234.500 247.046 229.000 244.647 C 225.975 243.328,212.925 237.428,200.000 231.536 C 102.316 187.003,25.460 160.726,30.378 173.542 C 32.191 178.266,20.062 167.977,18.027 163.065 C 15.481 156.918,22.306 151.246,34.408 149.453 C 37.107 149.053,40.786 147.727,42.584 146.507 C 46.545 143.820,55.128 142.005,68.500 141.027 C 89.494 139.493,86.747 138.787,102.348 149.725 " stroke="none" fill="#000000" fill-rule="evenodd"></path></g></svg>