<?xml version="1.0" encoding="UTF-8" standalone="no"?>
<!-- Created with Inkscape (http://www.inkscape.org/) -->

<svg
   xmlns:dc="http://purl.org/dc/elements/1.1/"
   xmlns:cc="http://creativecommons.org/ns#"
   xmlns:rdf="http://www.w3.org/1999/02/22-rdf-syntax-ns#"
   xmlns:svg="http://www.w3.org/2000/svg"
   xmlns="http://www.w3.org/2000/svg"
   xmlns:sodipodi="http://sodipodi.sourceforge.net/DTD/sodipodi-0.dtd"
   xmlns:inkscape="http://www.inkscape.org/namespaces/inkscape"
   version="1.1"
   id="svg2"
   xml:space="preserve"
   width="625.9256"
   height="182.93347"
   viewBox="0 0 625.9256 182.93347"
   sodipodi:docname="WARPLab_url.svg"
   inkscape:version="0.92.2 5c3e80d, 2017-08-06"><metadata
     id="metadata8"><rdf:RDF><cc:Work
         rdf:about=""><dc:format>image/svg+xml</dc:format><dc:type
           rdf:resource="http://purl.org/dc/dcmitype/StillImage" /><dc:title></dc:title></cc:Work></rdf:RDF></metadata><defs
     id="defs6"><clipPath
       clipPathUnits="userSpaceOnUse"
       id="clipPath20"><path
         d="M 0,0 H 1024 V 768 H 0 Z"
         id="path18"
         inkscape:connector-curvature="0" /></clipPath><clipPath
       clipPathUnits="userSpaceOnUse"
       id="clipPath32"><path
         d="m 289.6416,464.0147 h 405.296 v 164.5 h -405.296 z"
         id="path30"
         inkscape:connector-curvature="0" /></clipPath><clipPath
       clipPathUnits="userSpaceOnUse"
       id="clipPath46"><path
         d="m 217.1655,556.7686 h 28.23012 v 28.23012 H 217.1655 Z"
         id="path44"
         inkscape:connector-curvature="0" /></clipPath><clipPath
       clipPathUnits="userSpaceOnUse"
       id="clipPath58"><path
         d="m 237.9689,507.5307 h 28.23012 v 28.23012 H 237.9689 Z"
         id="path56"
         inkscape:connector-curvature="0" /></clipPath><clipPath
       clipPathUnits="userSpaceOnUse"
       id="clipPath70"><path
         d="m 260.9771,556.7686 h 28.23012 v 28.23012 H 260.9771 Z"
         id="path68"
         inkscape:connector-curvature="0" /></clipPath><clipPath
       clipPathUnits="userSpaceOnUse"
       id="clipPath82"><path
         d="m 283.9852,507.5307 h 28.23012 v 28.23012 H 283.9852 Z"
         id="path80"
         inkscape:connector-curvature="0" /></clipPath><clipPath
       clipPathUnits="userSpaceOnUse"
       id="clipPath94"><path
         d="m 304.7887,556.7686 h 28.23012 v 28.23012 H 304.7887 Z"
         id="path92"
         inkscape:connector-curvature="0" /></clipPath><clipPath
       clipPathUnits="userSpaceOnUse"
       id="clipPath106"><path
         d="m 233.5333,531.934 h 16.29467 v 28.66882 H 233.5333 Z"
         id="path104"
         inkscape:connector-curvature="0" /></clipPath><clipPath
       clipPathUnits="userSpaceOnUse"
       id="clipPath118"><path
         d="m 254.8189,531.6693 h 17.54051 v 29.19527 H 254.8189 Z"
         id="path116"
         inkscape:connector-curvature="0" /></clipPath><clipPath
       clipPathUnits="userSpaceOnUse"
       id="clipPath130"><path
         d="m 277.8229,531.6689 h 17.54275 v 29.20008 H 277.8229 Z"
         id="path128"
         inkscape:connector-curvature="0" /></clipPath><clipPath
       clipPathUnits="userSpaceOnUse"
       id="clipPath142"><path
         d="m 300.3568,531.9353 h 16.29244 v 28.66353 H 300.3568 Z"
         id="path140"
         inkscape:connector-curvature="0" /></clipPath><clipPath
       clipPathUnits="userSpaceOnUse"
       id="clipPath154"><path
         d="m 232.8318,420.5 h 455.6239 v 92 H 232.8318 Z"
         id="path152"
         inkscape:connector-curvature="0" /></clipPath></defs><sodipodi:namedview
     pagecolor="#ffffff"
     bordercolor="#666666"
     borderopacity="1"
     objecttolerance="10"
     gridtolerance="10"
     guidetolerance="10"
     inkscape:pageopacity="0"
     inkscape:pageshadow="2"
     inkscape:window-width="1312"
     inkscape:window-height="1094"
     id="namedview4"
     showgrid="false"
     inkscape:zoom="0.5080476"
     inkscape:cx="391.69558"
     inkscape:cy="406.39785"
     inkscape:window-x="425"
     inkscape:window-y="155"
     inkscape:window-maximized="0"
     inkscape:current-layer="g10" /><g
     id="g10"
     inkscape:groupmode="layer"
     inkscape:label="WARPLab_url"
     transform="matrix(1.3333333,0,0,-1.3333333,-274.85867,799.0124)"><g
       id="g12" /><g
       id="g26"><g
         id="g28"
         clip-path="url(#clipPath32)"><g
           id="g34"
           transform="translate(314,511)"><text
             transform="scale(1,-1)"
             style="font-variant:normal;font-weight:300;font-size:97px;font-family:Helvetica;-inkscape-font-specification:Helvetica-Light;writing-mode:lr-tb;fill:#000000;fill-opacity:1;fill-rule:nonzero;stroke:none"
             id="text38"><tspan
               x="0 64.698997 129.39799 188.66499 242.597 296.52899"
               y="0"
               sodipodi:role="line"
               id="tspan36">ARPLab</tspan></text>
</g></g></g><g
       id="g40"><g
         id="g42"
         clip-path="url(#clipPath46)"><g
           id="g48"
           transform="matrix(1,0,0,-1,221.1655,580.9987)"><path
             d="m 17.26749,2.962633 c 3.95018,3.950177 3.95018,10.354677 0,14.304857 -3.95018,3.95018 -10.35468,3.95018 -14.304857,0 -3.9501773,-3.95018 -3.9501773,-10.35468 0,-14.304857 3.950177,-3.9501773 10.354677,-3.9501773 14.304857,0 z"
             style="fill:none;stroke:#000000;stroke-width:6;stroke-linecap:butt;stroke-linejoin:miter;stroke-miterlimit:4;stroke-dasharray:none;stroke-opacity:1"
             id="path50"
             inkscape:connector-curvature="0" /></g></g></g><g
       id="g52"><g
         id="g54"
         clip-path="url(#clipPath58)"><g
           id="g60"
           transform="matrix(1,0,0,-1,241.9689,531.7608)"><path
             d="m 17.26749,2.962633 c 3.95018,3.950177 3.95018,10.354677 0,14.304857 -3.95018,3.95018 -10.35468,3.95018 -14.304857,0 -3.9501773,-3.95018 -3.9501773,-10.35468 0,-14.304857 3.950177,-3.9501773 10.354677,-3.9501773 14.304857,0 z"
             style="fill:none;stroke:#000000;stroke-width:6;stroke-linecap:butt;stroke-linejoin:miter;stroke-miterlimit:4;stroke-dasharray:none;stroke-opacity:1"
             id="path62"
             inkscape:connector-curvature="0" /></g></g></g><g
       id="g64"><g
         id="g66"
         clip-path="url(#clipPath70)"><g
           id="g72"
           transform="matrix(1,0,0,-1,264.9771,580.9987)"><path
             d="m 17.26749,2.962633 c 3.95018,3.950177 3.95018,10.354677 0,14.304857 -3.95018,3.95018 -10.35468,3.95018 -14.304857,0 -3.9501773,-3.95018 -3.9501773,-10.35468 0,-14.304857 3.950177,-3.9501773 10.354677,-3.9501773 14.304857,0 z"
             style="fill:none;stroke:#000000;stroke-width:6;stroke-linecap:butt;stroke-linejoin:miter;stroke-miterlimit:4;stroke-dasharray:none;stroke-opacity:1"
             id="path74"
             inkscape:connector-curvature="0" /></g></g></g><g
       id="g76"><g
         id="g78"
         clip-path="url(#clipPath82)"><g
           id="g84"
           transform="matrix(1,0,0,-1,287.9852,531.7608)"><path
             d="m 17.26749,2.962633 c 3.95018,3.950177 3.95018,10.354677 0,14.304857 -3.95018,3.95018 -10.35468,3.95018 -14.304857,0 -3.9501773,-3.95018 -3.9501773,-10.35468 0,-14.304857 3.950177,-3.9501773 10.354677,-3.9501773 14.304857,0 z"
             style="fill:none;stroke:#000000;stroke-width:6;stroke-linecap:butt;stroke-linejoin:miter;stroke-miterlimit:4;stroke-dasharray:none;stroke-opacity:1"
             id="path86"
             inkscape:connector-curvature="0" /></g></g></g><g
       id="g88"><g
         id="g90"
         clip-path="url(#clipPath94)"><g
           id="g96"
           transform="matrix(1,0,0,-1,308.7887,580.9987)"><path
             d="m 17.26749,2.962633 c 3.95018,3.950177 3.95018,10.354677 0,14.304857 -3.95018,3.95018 -10.35468,3.95018 -14.304857,0 -3.9501773,-3.95018 -3.9501773,-10.35468 0,-14.304857 3.950177,-3.9501773 10.354677,-3.9501773 14.304857,0 z"
             style="fill:none;stroke:#000000;stroke-width:6;stroke-linecap:butt;stroke-linejoin:miter;stroke-miterlimit:4;stroke-dasharray:none;stroke-opacity:1"
             id="path98"
             inkscape:connector-curvature="0" /></g></g></g><g
       id="g100"><g
         id="g102"
         clip-path="url(#clipPath106)"><g
           id="g108"
           transform="matrix(1,0,0,-1,236.3757,558.8245)"><path
             d="M 10.61005,25.11204 C 7.073367,16.74136 3.536683,8.370679 0,0"
             style="fill:none;stroke:#000000;stroke-width:4;stroke-linecap:butt;stroke-linejoin:miter;stroke-miterlimit:4;stroke-dasharray:none;stroke-opacity:1"
             id="path110"
             inkscape:connector-curvature="0" /></g></g></g><g
       id="g112"><g
         id="g114"
         clip-path="url(#clipPath118)"><g
           id="g120"
           transform="matrix(1,0,0,-1,257.6308,559.0179)"><path
             d="M 0,25.50189 C 3.972213,17.00126 7.944427,8.50063 11.91664,0"
             style="fill:none;stroke:#000000;stroke-width:4;stroke-linecap:butt;stroke-linejoin:miter;stroke-miterlimit:4;stroke-dasharray:none;stroke-opacity:1"
             id="path122"
             inkscape:connector-curvature="0" /></g></g></g><g
       id="g124"><g
         id="g126"
         clip-path="url(#clipPath130)"><g
           id="g132"
           transform="matrix(1,0,0,-1,280.6348,559.0222)"><path
             d="M 11.91888,25.5067 C 7.945918,17.00447 3.972959,8.502235 0,0"
             style="fill:none;stroke:#000000;stroke-width:4;stroke-linecap:butt;stroke-linejoin:miter;stroke-miterlimit:4;stroke-dasharray:none;stroke-opacity:1"
             id="path134"
             inkscape:connector-curvature="0" /></g></g></g><g
       id="g136"><g
         id="g138"
         clip-path="url(#clipPath142)"><g
           id="g144"
           transform="matrix(1,0,0,-1,303.1991,558.8204)"><path
             d="M 0,25.10675 C 3.53594,16.73783 7.071881,8.368916 10.60782,0"
             style="fill:none;stroke:#000000;stroke-width:4;stroke-linecap:butt;stroke-linejoin:miter;stroke-miterlimit:4;stroke-dasharray:none;stroke-opacity:1"
             id="path146"
             inkscape:connector-curvature="0" /></g></g></g><g
       id="g148"><g
         id="g150"
         clip-path="url(#clipPath154)"><g
           id="g156"
           transform="translate(241,474)"><text
             transform="scale(1,-1)"
             style="font-variant:normal;font-weight:300;font-size:32px;font-family:Helvetica;-inkscape-font-specification:Helvetica-Light;writing-mode:lr-tb;fill:#000000;fill-opacity:1;fill-rule:nonzero;stroke:none"
             id="text160"><tspan
               x="0 40.703999 76.096001 104.352 141.504 168 208.70399 244.09599 279.48801 304.19199 330.68799 366.07999 403.23199"
               y="0"
               sodipodi:role="line"
               id="tspan158">warp.whoi.edu</tspan></text>
</g></g></g></g></svg>