<?xml version="1.0" encoding="UTF-8"?>
<!-- Generator: Adobe Illustrator 19.0.0, SVG Export Plug-In . SVG Version: 6.00 Build 0)  -->
<svg id="layer" width="180" height="180" version="1.1" viewBox="295 -46 180 180" xmlns="http://www.w3.org/2000/svg">
 <title>Wattpad logo</title>
 <style type="text/css">.st0{fill:#FF6122;}</style>
 <path class="st0" d="m331.13 109.28c26.5 0 30.2-32.5 48.3-61.5-.7 10.4-.1 19.5 1.9 25.9 7.9 24.9 35 26.8 47.3 1.5 17.4-35.6 22.4-44 39.9-69.7 11.6-16.9-1.8-27.9-17.4-20-8 4-20.9 14.2-37.1 35.6 2.8-16.3 2.1-43.9-21.5-42.3-12.4.8-28.5 14.8-50.5 50.8 1.8-20.2 2.5-34.5-6.3-42-6-5.1-20.2-7.1-28.7 3.9-8.6 11.1-10.6 32.8-9.7 55.6 1.9 47.8 18.8 62.2 33.8 62.2" style="fill:#000000"/>
</svg>