<svg height="819" viewBox="-.46828066 -.43941973 12.5941973 12.59341973" width="819" xmlns="http://www.w3.org/2000/svg">
<path d="m8.116 6.314-.847-.847v2.396h.847zm-3.388-2.552h2.062l-.843-.843-.004-.004h-1.083a1.394 1.394 0 0 0 -.132-2.783v2.788h-.001l-2.317-2.31a4.133 4.133 0 0 0 -.722.476l2.192 2.184v4.797l1.695 1.693v-1.197l-.847-.847z"/>
<path d="m5.575 3.767-.004 4.09h.846l.004-3.238zm2.905 1.699-.846-.846h-1.212l.846.846zm-5.445 1.804v-3.643l-1.946-1.945a4.218 4.218 0 0 0 -.477.72l1.576 1.576v1.198l-1.912-1.912c-.09.336-.14.69-.144 1.054zm-2.888-1.74v1.197l5.428 5.427v-1.197zm9.663 1.263h-.848v1.07h-.846a1.395 1.395 0 1 0 2.789 0z"/>
</svg>